<?xml version="1.0" encoding="UTF-8" standalone="no"?>
<svg
   width="4350.9951"
   height="1490.8698"
   viewBox="0 0 4350.9952 1490.8698"
   fill="none"
   version="1.1"
   id="svg15"
   sodipodi:docname="white_text.svg"
   inkscape:version="1.3.2 (091e20e, 2023-11-25, custom)"
   xmlns:inkscape="http://www.inkscape.org/namespaces/inkscape"
   xmlns:sodipodi="http://sodipodi.sourceforge.net/DTD/sodipodi-0.dtd"
   xmlns="http://www.w3.org/2000/svg"
   xmlns:svg="http://www.w3.org/2000/svg">
  <sodipodi:namedview
     id="namedview15"
     pagecolor="#000000"
     bordercolor="#000000"
     borderopacity="0.25"
     inkscape:showpageshadow="2"
     inkscape:pageopacity="0.0"
     inkscape:pagecheckerboard="0"
     inkscape:deskcolor="#d1d1d1"
     inkscape:zoom="0.3739339"
     inkscape:cx="1576.4818"
     inkscape:cy="680.60157"
     inkscape:window-width="1920"
     inkscape:window-height="1009"
     inkscape:window-x="-8"
     inkscape:window-y="-8"
     inkscape:window-maximized="1"
     inkscape:current-layer="svg15">
    <inkscape:page
       x="0"
       y="0"
       width="4350.9951"
       height="1490.8698"
       id="page15"
       margin="0"
       bleed="0" />
  </sodipodi:namedview>
  <path
     d="M 1924.2944,937.01282 V 231.03479 h 184.13 v 705.97803 z"
     fill="#ffffff"
     id="path1" />
  <path
     d="m 2751.4044,231.03479 h 186.14 l -321.23,705.97803 h -146.11 l -321.23,-705.97803 h 191.14 l 205.15,476.65803 z"
     fill="#ffffff"
     id="path2" />
  <path
     d="m 3444.8044,937.01282 -63.05,-146.2 h -312.22 l -63.05,146.2 h -185.13 l 329.24,-705.97803 h 146.1 l 330.24,705.97803 z m -316.23,-284.4 h 194.14 l -97.07,-226.31 z"
     fill="#ffffff"
     id="path3" />
  <path
     d="m 3985.3744,946.02282 c -72.05,0 -134.76,-14.69 -188.13,-44.06 -52.71,-30.04 -93.4,-72.1 -122.09,-126.18 -28.69,-54.74 -43.03,-118.83 -43.03,-192.26 0,-73.44 14.34,-137.19 43.03,-191.26 28.69,-54.74703 69.38,-96.80503 122.09,-126.17903 53.37,-29.374 116.08,-44.061 188.13,-44.061 72.05,0 134.43,14.687 187.13,44.061 53.37,29.374 94.07,71.432 122.09,126.17903 28.69,54.07 43.03,117.82 43.03,191.26 0,73.43 -14.34,137.52 -43.03,192.26 -28.69,54.08 -69.72,96.14 -123.09,126.18 -52.7,29.37 -114.75,44.06 -186.13,44.06 z m 0,-141.19 c 53.37,0 95.07,-18.7 125.09,-56.08 30.02,-38.05 45.03,-93.13 45.03,-165.23 0,-72.1 -15.34,-126.84 -46.03,-164.23 -30.02,-37.38 -71.39,-56.07003 -124.09,-56.07003 -53.37,0 -95.07,18.69003 -125.09,56.07003 -30.02,36.72 -45.03,91.46 -45.03,164.23 0,72.77 15.01,127.84 45.03,165.23 30.02,37.38 71.72,56.08 125.09,56.08 z"
     fill="#ffffff"
     id="path4"
     style="display:inline" />
  <mask
     id="mask0_3223_130"
     maskUnits="userSpaceOnUse"
     x="2275"
     y="1538"
     width="569"
     height="570">
    <path
       d="m 2559.5,2108 c -156.7,0 -284.5,-128.03 -284.5,-285 0,-156.97 127.8,-285 284.5,-285 156.7,0 284.5,128.03 284.5,285 0,156.97 -127.8,285 -284.5,285 z"
       fill="#ffffff"
       id="path5" />
  </mask>
  <g
     mask="url(#mask0_3223_130)"
     id="g13"
     transform="translate(-1395.3256,-644.97721)"
     style="display:inline">
    <g
       clip-path="url(#clip0_3223_130)"
       id="g12">
      <mask
         id="mask1_3223_130"
         maskUnits="userSpaceOnUse"
         x="2132"
         y="1537"
         width="855"
         height="571">
        <path
           d="m 2987,1537.75 h -855 v 570 h 855 z"
           fill="#ffffff"
           id="path6" />
      </mask>
      <g
         mask="url(#mask1_3223_130)"
         id="g11">
        <path
           d="m 3031.71,1480.75 h -944.42 v 684 h 944.42 z"
           fill="#db1f26"
           id="path7" />
        <path
           d="m 2746.67,1533.38 h -374.34 v 578.74 h 374.34 z"
           fill="#ffffff"
           id="path8" />
        <path
           d="m 2993.55,1533.38 h -247.38 v 578.74 h 247.38 z"
           fill="#ec2224"
           id="path9" />
        <path
           d="m 2372.83,1533.38 h -247.38 v 578.74 h 247.38 z"
           fill="#ec2224"
           id="path10" />
        <path
           d="m 2559.5,1641.49 -29.31,54.67 c -3.33,5.94 -9.29,5.39 -15.25,2.07 l -21.22,-10.99 15.81,84 c 3.33,15.34 -7.35,15.34 -12.62,8.68 l -37.05,-41.47 -6,21.06 c -0.69,2.76 -3.75,5.67 -8.33,4.97 l -46.83,-9.83 12.31,44.72 c 2.63,9.95 4.69,14.07 -2.66,16.7 l -16.69,7.84 80.63,65.49 c 1.62,1.28 2.83,3 3.48,4.95 0.65,1.96 0.72,4.06 0.19,6.05 l -7.06,23.15 c 27.78,-3.2 52.63,-8.02 80.4,-11 2.46,-0.26 6.56,3.79 6.54,6.63 l -3.67,84.82 h 13.49 l -2.11,-84.67 c 0,-2.85 3.71,-7.07 6.16,-6.81 27.79,2.97 52.67,7.78 80.41,11 l -7.06,-23.13 c -0.53,-1.98 -0.47,-4.09 0.18,-6.04 0.65,-1.95 1.86,-3.67 3.47,-4.95 l 80.6,-65.49 -16.69,-7.85 c -7.34,-2.63 -5.29,-6.75 -2.66,-16.69 l 12.31,-44.73 -46.84,9.84 c -4.56,0.69 -7.62,-2.21 -8.31,-4.98 l -6.02,-21.05 -37.05,41.46 c -5.26,6.64 -15.96,6.64 -12.62,-8.68 l 15.85,-83.98 -21.22,11 c -5.96,3.32 -11.92,3.87 -15.24,-2.07"
           fill="#ec2224"
           id="path11" />
      </g>
    </g>
    <path
       d="m 2559.48,1548.92 c 150.44,0 273.62,123.39 273.62,274.08 0,150.69 -123.18,274.08 -273.62,274.08 -150.44,0 -273.62,-123.39 -273.62,-274.08 0,-150.69 123.18,-274.08 273.62,-274.08 z m 0,-10.92 c -156.98,0 -284.52,127.76 -284.52,285 0,157.24 127.54,285 284.52,285 156.98,0 284.52,-127.76 284.52,-285 0,-157.24 -127.54,-285 -284.52,-285 z"
       fill="#ffffff"
       id="path12"
       inkscape:label="path12"
       style="display:inline" />
  </g>
  <path
     fill-rule="evenodd"
     clip-rule="evenodd"
     d="m 770.19432,781.49283 c -0.27,-0.04 -35.38,-4.5 -39.5,-4.68 -0.4,-0.02 -0.89,-0.04 -1.45,-0.06 -3.2,-0.13 -8.66,-0.35 -12.64,-0.61 -2.76,-0.18 -5.93,-2.5 -6.04,-5.26 -0.06,-1.41 -0.08,-3.03 -0.09,-4.69 -0.01,-1.44 -0.03,-2.92 -0.07,-4.31 0,-6.08 0.67,-16.02 1.04,-18.32 0.03,-0.14 0.09,-0.32 0.17,-0.45 0.24,-0.37 0.65,-0.48 1.09,-0.48 h 7.76 c 1.21,0 1.25,3.02 1.09,4.85 -0.01,0.12 -0.02,0.24 -0.02,0.37 -0.04,1.64 -0.35,13.97 -0.35,15.65 0,1.79 3.41,3.23 7.72,3.05 4.27,-0.17 41.31,-2.29 42,-2.33 0.03,-0.01 0,0 0.02,0 0.7,-0.04 77.42,-3.42 85.46,-3.78 8.08,-0.36 9.34,-12.24 9.16,-21.41 -0.11,-5.7 -1.34,-11.27 -2.24,-14.66 -0.54,-2.02 -2.38,-3.36 -4.47,-3.41 l -9.34,-0.22 c -1.43,-0.03 -2.54,-1.25 -2.44,-2.67 0.1,-1.35 1.25,-2.38 2.6,-2.32 l 23.08,0.98 c 2.31,0.1 4.17,1.84 5.3,3.86 0.82,1.46 2.06,2.79 3.85,2.79 1.11,0 1.91,-0.48 2.49,-1.15 0.11,-0.14 0.22,-0.27 0.34,-0.41 1.7,-2.03 3.6,-4.29 6.2,-4.19 2.67,0.09 4.76,2.3 4.72,4.96 -0.07,4.41 -0.18,10.72 -0.29,13.92 0,5.4 2.34,10.44 5.75,10.62 1.38,0.06 2.38,-0.55 3.1,-1.38 1.7,-1.97 3.75,-4.12 6.35,-4.01 l 7.84,0.33 c 2.68,0.11 4.69,2.39 5.62,4.9 0.66,1.78 1.86,3.39 4.02,3.39 2.2,0.17 3.54,-1.4 4.36,-3.16 1.12,-2.42 3.29,-4.5 5.95,-4.4 l 50.60003,1.82 c 1.72,0.06 3.02,1.28 4.34,2.5 0.68,0.64 1.36,1.28 2.11,1.76 0.39,0.25 0.85,0.4 1.41,0.4 1.02,0 1.87,-0.46 2.53,-1.08 1.60005,-1.48 3.44005,-3.01 5.62005,-2.95 l 20.22,0.55 c 1.48,0.04 2.9,-0.58 3.88,-1.68 l 0.4,-0.45 c 1.94,-2.2 5.37,-2.27 7.6,-0.35 3.3,2.84 8,6.25 11.46,6.14 5.93,0 15.63,-8.09 19.4,-16.55 1.67,-3.74 2.6,-6.99 3.11,-9.45 0.57,-2.7 2.85,-4.95 5.61,-4.95 23.03,-0.07 118.96,-0.35 128.28,-0.35 10.59,-0.18 11.67,-27.52 10.95,-25.72 -0.42,1.05 -1.77,4.64 -2.81,7.42 -0.78,2.1 -2.86,3.42 -5.09,3.24 l -144.2,-11.72 c -1.57,-0.13 -2.99,-1 -4.06,-2.16 -2.15,-2.34 -6.56,-6.01 -13.34,-6.5 -6.38,-0.46 -10.88,2.35 -13.32,4.46 -1.42,1.23 -3.29,2.01 -5.15,1.71 l -122.53008,-19.8 c -1.55,-0.25 -2.89,-1.22 -3.81,-2.5 -2.72,-3.76 -9.62,-11.3 -21.46,-11.57 -6.95,-0.28 -10.91,1.5 -13.12,3.34 -2.01,1.66 -4.74,3.31 -7.3,2.86 -127.11,-22.56 -139.83,-35.99 -141.05,-37.97 -0.11,-0.17 -0.14,-0.34 -0.16,-0.54 -0.23,-2.31 -1.76,-18.37 -1.76,-41.81 0,-94.09 -39.68,-147.88 -55.66,-147.88 -0.06,0 -0.12,0.01 -0.18,0.02 -0.06,-0.01 -0.12,-0.02 -0.18,-0.02 -15.98,0 -55.66,53.79 -55.66,147.88 0,23.44 -1.54,39.5 -1.77,41.81 -0.02,0.2 -0.05,0.37 -0.15,0.54 -1.22,1.98 -13.95,15.41 -141.05,37.97 -2.56,0.45 -5.3,-1.2 -7.3,-2.86 -2.22,-1.84 -6.17,-3.61 -13.13,-3.34 -11.84,0.27 -18.74,7.81 -21.45,11.57 -0.92,1.28 -2.26,2.25 -3.82,2.5 l -122.53,19.8 c -1.85,0.3 -3.73,-0.48 -5.15,-1.71 -2.44,-2.11 -6.94,-4.92 -13.32,-4.46 -6.77,0.49 -11.18,4.16 -13.34,6.5 -1.07,1.16 -2.49,2.03 -4.06,2.16 l -144.19,11.72 c -2.23,0.18 -4.31,-1.14 -5.1,-3.24 -1.04,-2.78 -2.38,-6.37 -2.8,-7.42 -0.72,-1.8 0.36,25.54 10.95,25.72 9.31,0 105.24,0.28 128.27,0.35 2.76,0 5.04,2.25 5.61,4.95 0.52,2.46 1.45,5.71 3.12,9.45 3.77,8.46 13.46,16.55 19.39,16.55 3.47,0.11 8.16,-3.3 11.46,-6.14 2.23,-1.92 5.66,-1.85 7.61,0.35 l 0.39,0.45 c 0.98,1.1 2.4,1.72 3.88,1.68 l 20.22,-0.55 c 2.18,-0.06 4.02,1.47 5.62,2.95 0.67,0.62 1.51,1.08 2.53,1.08 0.56,0 1.03,-0.15 1.41,-0.4 0.75,-0.48 1.43,-1.12 2.12,-1.76 1.31,-1.22 2.61,-2.44 4.33,-2.5 l 50.6,-1.82 c 2.66,-0.1 4.83,1.98 5.95,4.4 0.82,1.76 2.17,3.33 4.36,3.16 2.16,0 3.36,-1.61 4.02,-3.39 0.94,-2.51 2.94,-4.79 5.62,-4.9 l 7.85,-0.33 c 2.6,-0.11 4.64,2.04 6.34,4.01 0.72,0.83 1.72,1.44 3.1,1.38 3.42,-0.18 5.75,-5.22 5.75,-10.62 -0.11,-3.2 -0.22,-9.51 -0.29,-13.92 -0.04,-2.66 2.06,-4.87 4.72,-4.96 2.61,-0.1 4.5,2.16 6.21,4.19 0.11,0.14 0.22,0.27 0.34,0.41 0.57,0.68 1.37,1.15 2.49,1.15 1.79,0 3.02,-1.33 3.84,-2.79 1.14,-2.02 2.99,-3.76 5.31,-3.86 l 23.07,-0.98 c 1.35,-0.06 2.51,0.97 2.6,2.32 0.1,1.42 -1.01,2.64 -2.43,2.67 l -9.35,0.22 c -2.09,0.05 -3.92,1.39 -4.46,3.41 -0.91,3.39 -2.13,8.96 -2.24,14.66 -0.18,9.17 1.07,21.05 9.15,21.41 8.05,0.36 84.76,3.74 85.47,3.78 0.02,0 -0.01,0 0.01,0 0.7,0.04 37.74,2.16 42.01,2.33 4.31,0.18 7.72,-1.25 7.72,-3.05 0,-1.68 -0.32,-14.01 -0.36,-15.65 0,-0.09 0,-0.17 -0.01,-0.25 0,-0.04 -0.01,-0.08 -0.01,-0.12 -0.16,-1.83 -0.12,-4.85 1.09,-4.85 h 7.76 c 0.44,0 0.86,0.11 1.09,0.48 0.08,0.13 0.15,0.31 0.17,0.45 0.37,2.3 1.04,12.24 1.04,18.32 -0.04,1.39 -0.05,2.87 -0.07,4.31 -0.01,1.66 -0.03,3.28 -0.08,4.7 -0.11,2.75 -3.29,5.07 -6.04,5.25 -3.83,0.24 -8.99,0.46 -12.2,0.59 -0.76,0.03 -1.41,0.06 -1.9,0.08 -4.11,0.18 -39.23,4.64 -39.5,4.68 -0.01,0 0.01,0 0,0 -0.28,0.03 -75.24,9.17 -77.21,9.53 -1.97,0.36 -1.8,3.78 0,3.78 0.3,0 1.96,0.1 4.68,0.27 13.84,0.84 54.95,3.36 81.51,2.61 27.26,-0.92 60.8,-2.11 70.06,-2.43 1.57,-0.06 3.06,0.62 4.08,1.81 3.86,4.44 13.91,15.35 22.14,18.36 -0.72,0.5 -0.95,0.79 0.06,0.79 h 3.79 c 0.02,0 0.04,0 0.06,0 h 4.2 c 1.02,0 0.78,-0.29 0.06,-0.79 8.23,-3.01 18.29,-13.92 22.14,-18.36 1.03,-1.19 2.51,-1.87 4.08,-1.81 9.26,0.32 42.8,1.51 70.07,2.43 26.56,0.75 67.67,-1.77 81.5,-2.61 2.72,-0.17 4.39,-0.27 4.68,-0.27 1.8,0 1.98,-3.42 0,-3.78 -1.97,-0.36 -76.93,-9.5 -77.2,-9.53 z"
     fill="#ffffff"
     id="path13"
     style="display:inline" />
  <path
     d="m 662.67431,8.0227932 c -364.5,0 -660.0000003,295.4999968 -660.0000003,660.0000268 0,364.49998 295.5000003,659.99998 660.0000003,659.99998 53.4,0 105.3,-6.3 155,-18.3 -6.1,-16.1 -11.2,-32.8 -15,-49.9 -45,10.6 -91.8,16.2 -140,16.2 -335.8,0 -608,-272.2 -608,-607.99998 0,-335.80003 272.2,-608.000027 608,-608.000027 335.80004,0 608.00009,272.199997 608.00009,608.000027 0,51.5 -6.4,101.6 -18.5,149.4 17,4.1 33.6,9.4 49.6,15.8 13.7,-52.8 20.9,-108.2 20.9,-165.2 0,-364.50003 -295.5,-660.0000268 -660.00009,-660.0000268 z"
     fill="#ffffff"
     id="path14"
     style="display:inline" />
  <path
     d="m 2065.8744,1480.1728 c -24.27,0 -45.03,-5.13 -62.3,-15.4 -17.27,-10.27 -30.57,-24.85 -39.9,-43.75 -9.1,-18.9 -13.65,-41.42 -13.65,-67.55 0,-25.9 4.55,-48.3 13.65,-67.2 9.33,-18.9 22.63,-33.48 39.9,-43.75 17.27,-10.27 38.03,-15.4 62.3,-15.4 17.03,0 32.67,2.68 46.9,8.05 14.47,5.37 26.72,13.18 36.75,23.45 l -11.2,23.45 c -10.73,-10.03 -21.93,-17.27 -33.6,-21.7 -11.43,-4.67 -24.15,-7 -38.15,-7 -27.77,0 -49,8.75 -63.7,26.25 -14.7,17.5 -22.05,42.12 -22.05,73.85 0,31.97 7.35,56.7 22.05,74.2 14.7,17.5 35.93,26.25 63.7,26.25 14,0 26.72,-2.22 38.15,-6.65 11.67,-4.67 22.87,-12.02 33.6,-22.05 l 11.2,23.45 c -10.03,10.03 -22.28,17.85 -36.75,23.45 -14.23,5.37 -29.87,8.05 -46.9,8.05 z m 98.8,-3.15 108.85,-246.75 h 24.5 l 108.85,246.75 h -29.75 l -27.3,-63 h -128.45 l -26.95,63 z m 120.75,-213.15 -53.55,126 h 107.8 l -53.55,-126 z m 158.03,213.15 v -246.75 h 22.4 l 148.75,198.45 v -198.45 h 26.6 v 246.75 h -21.7 l -149.1,-199.15 v 199.15 z m 235.28,0 108.85,-246.75 h 24.5 l 108.85,246.75 h -29.75 l -27.3,-63 h -128.45 l -26.95,63 z m 120.75,-213.15 -53.55,126 h 107.8 l -53.55,-126 z m 158.03,213.15 v -246.75 h 83.3 c 39.9,0 70.7,10.62 92.4,31.85 21.7,21 32.55,51.45 32.55,91.35 0,39.9 -10.85,70.47 -32.55,91.7 -21.7,21.23 -52.5,31.85 -92.4,31.85 z m 28.7,-24.5 h 52.5 c 64.4,0 96.6,-33.02 96.6,-99.05 0,-65.8 -32.2,-98.7 -96.6,-98.7 h -52.5 z m 203.16,24.5 108.85,-246.75 h 24.5 l 108.85,246.75 h -29.75 l -27.3,-63 h -128.45 l -26.95,63 z m 120.75,-213.15 -53.55,126 h 107.8 l -53.55,-126 z"
     fill="#ffffff"
     id="path15"
     style="display:inline" />
  <defs
     id="defs15">
    <clipPath
       id="clip0_3223_130">
      <rect
         width="855"
         height="570"
         fill="#ffffff"
         transform="translate(2132,1538)"
         id="rect15"
         x="0"
         y="0" />
    </clipPath>
  </defs>
</svg>
